<?xml version="1.0" encoding="utf-8" standalone="no"?>
<!DOCTYPE svg PUBLIC "-//W3C//DTD SVG 1.1//EN"
  "http://www.w3.org/Graphics/SVG/1.1/DTD/svg11.dtd">
<!-- Created with matplotlib (http://matplotlib.org/) -->
<svg height="337.881045pt" version="1.1" viewBox="0 0 450.484831 337.881045" width="450.484831pt" xmlns="http://www.w3.org/2000/svg" xmlns:xlink="http://www.w3.org/1999/xlink">
 <defs>
  <style type="text/css">
*{stroke-linecap:butt;stroke-linejoin:round;}
  </style>
 </defs>
 <g id="figure_1">
  <g id="patch_1">
   <path d="M 0 337.881045 
L 450.484831 337.881045 
L 450.484831 0 
L 0 0 
z
" style="fill:#ffffff;"/>
  </g>
  <g id="axes_1">
   <g id="patch_2">
    <path d="M 33.996376 103.384533 
L 439.784831 103.384533 
L 439.784831 10.7 
L 33.996376 10.7 
z
" style="fill:#ffffff;"/>
   </g>
   <g id="matplotlib.axis_1">
    <g id="xtick_1">
     <g id="line2d_1">
      <defs>
       <path d="M 0 0 
L 0 3.5 
" id="mc6eeaa97c4" style="stroke:#000000;stroke-width:0.8;"/>
      </defs>
      <g>
       <use style="stroke:#000000;stroke-width:0.8;" x="41.8" xlink:href="#mc6eeaa97c4" y="57.042267"/>
      </g>
     </g>
    </g>
    <g id="xtick_2">
     <g id="line2d_2">
      <g>
       <use style="stroke:#000000;stroke-width:0.8;" x="171.860402" xlink:href="#mc6eeaa97c4" y="57.042267"/>
      </g>
     </g>
     <g id="text_1">
      <!-- $\pi/\omega$ -->
      <defs>
       <path d="M 10.109375 1.703125 
Q 10.109375 2.25 10.5 3.328125 
Q 13.28125 9.125 15.6875 14.71875 
Q 18.109375 20.3125 20.03125 25.609375 
Q 21.96875 30.90625 23.578125 36.921875 
L 17.1875 36.921875 
Q 13.53125 36.921875 10.34375 34.625 
Q 7.171875 32.328125 5.078125 28.8125 
Q 4.890625 28.421875 4.5 28.421875 
L 3.328125 28.421875 
Q 2.390625 28.421875 2.390625 29.390625 
Q 2.390625 29.59375 2.59375 29.984375 
Q 5.859375 35.546875 9.59375 39.328125 
Q 13.328125 43.109375 18.015625 43.109375 
L 54.296875 43.109375 
Q 55.328125 43.109375 56.046875 42.421875 
Q 56.78125 41.75 56.78125 40.578125 
Q 56.78125 39.109375 55.734375 38.015625 
Q 54.6875 36.921875 53.21875 36.921875 
L 40.484375 36.921875 
Q 38.875 29.046875 38.71875 21.578125 
Q 38.71875 11.96875 42.09375 4.203125 
Q 42.390625 3.609375 42.390625 2.984375 
Q 42.390625 1.90625 41.75 0.96875 
Q 41.109375 0.046875 40.109375 -0.53125 
Q 39.109375 -1.125 37.984375 -1.125 
Q 35.359375 -1.125 34.375 3.171875 
Q 33.40625 7.46875 33.40625 11.53125 
Q 33.40625 17.234375 34.375 22.53125 
Q 35.359375 27.828125 37.5 36.921875 
L 26.609375 36.921875 
Q 18.703125 4.890625 17.09375 1.609375 
Q 15.671875 -1.125 13.1875 -1.125 
Q 11.96875 -1.125 11.03125 -0.3125 
Q 10.109375 0.484375 10.109375 1.703125 
z
" id="Cmmi10-bc"/>
       <path d="M 5.609375 -23 
Q 5.609375 -22.703125 5.71875 -22.609375 
L 40.484375 73.78125 
Q 40.671875 74.359375 41.15625 74.671875 
Q 41.65625 75 42.28125 75 
Q 43.171875 75 43.71875 74.453125 
Q 44.28125 73.921875 44.28125 73 
L 44.28125 72.609375 
L 9.515625 -23.78125 
Q 8.9375 -25 7.625 -25 
Q 6.78125 -25 6.1875 -24.40625 
Q 5.609375 -23.828125 5.609375 -23 
z
" id="Cmmi10-3d"/>
       <path d="M 12.109375 -1.125 
Q 6.453125 -1.125 3.9375 3.015625 
Q 1.421875 7.171875 1.421875 13.1875 
Q 1.421875 17.140625 2.125 20.921875 
Q 2.828125 24.703125 4.265625 28.578125 
Q 5.71875 32.46875 7.5625 35.859375 
Q 9.421875 39.265625 11.71875 42.484375 
Q 12.15625 43.109375 12.890625 43.109375 
Q 13.53125 43.109375 13.921875 42.71875 
Q 14.3125 42.328125 14.3125 41.796875 
Q 14.3125 41.265625 14.015625 40.828125 
Q 4.890625 28.265625 4.890625 17.671875 
Q 4.890625 13.09375 7 9.796875 
Q 9.125 6.5 13.484375 6.5 
Q 17.234375 6.5 20.4375 8.6875 
Q 23.640625 10.890625 25.984375 14.3125 
Q 25.984375 16.0625 26.59375 19.765625 
Q 27.203125 23.484375 28.484375 26.390625 
Q 29.78125 29.296875 31.59375 29.296875 
Q 33.890625 29.296875 33.890625 26.609375 
Q 33.890625 25.046875 33.21875 22.671875 
Q 32.5625 20.3125 31.75 18.265625 
Q 30.953125 16.21875 29.78125 13.625 
Q 30.953125 6.5 36.921875 6.5 
Q 40.375 6.5 43.859375 8.5 
Q 47.359375 10.5 50.046875 13.75 
Q 52.734375 17 54.265625 20.75 
Q 55.8125 24.515625 55.8125 27.875 
Q 55.8125 30.90625 54.859375 32.59375 
Q 53.90625 34.28125 52.34375 36.125 
Q 50.78125 37.984375 50.78125 39.109375 
Q 50.78125 41.0625 52.4375 42.671875 
Q 54.109375 44.28125 56 44.28125 
Q 58.453125 44.28125 59.46875 42.0625 
Q 60.5 39.84375 60.5 37.015625 
Q 60.5 32.421875 58.671875 25.4375 
Q 56.84375 18.453125 54.5 13.8125 
Q 51.265625 7.515625 46.40625 3.1875 
Q 41.546875 -1.125 35.5 -1.125 
Q 31.640625 -1.125 29.265625 1.1875 
Q 26.90625 3.515625 26.21875 7.515625 
Q 23.4375 3.5625 19.875 1.21875 
Q 16.3125 -1.125 12.109375 -1.125 
z
" id="Cmmi10-21"/>
      </defs>
      <g transform="translate(163.360402 71.542267)scale(0.1 -0.1)">
       <use xlink:href="#Cmmi10-bc"/>
       <use transform="translate(56.982422 0)" xlink:href="#Cmmi10-3d"/>
       <use transform="translate(106.982422 0)" xlink:href="#Cmmi10-21"/>
      </g>
     </g>
    </g>
    <g id="xtick_3">
     <g id="line2d_3">
      <g>
       <use style="stroke:#000000;stroke-width:0.8;" x="301.920805" xlink:href="#mc6eeaa97c4" y="57.042267"/>
      </g>
     </g>
     <g id="text_2">
      <!-- $2\pi/\omega$ -->
      <defs>
       <path d="M 4.984375 0 
L 4.984375 2.6875 
Q 4.984375 2.9375 5.171875 3.21875 
L 20.703125 20.40625 
Q 24.21875 24.21875 26.40625 26.796875 
Q 28.609375 29.390625 30.75 32.765625 
Q 32.90625 36.140625 34.15625 39.625 
Q 35.40625 43.109375 35.40625 47.015625 
Q 35.40625 51.125 33.890625 54.859375 
Q 32.375 58.59375 29.375 60.84375 
Q 26.375 63.09375 22.125 63.09375 
Q 17.78125 63.09375 14.3125 60.46875 
Q 10.84375 57.859375 9.421875 53.71875 
Q 9.8125 53.8125 10.5 53.8125 
Q 12.75 53.8125 14.328125 52.296875 
Q 15.921875 50.78125 15.921875 48.390625 
Q 15.921875 46.09375 14.328125 44.5 
Q 12.75 42.921875 10.5 42.921875 
Q 8.15625 42.921875 6.5625 44.546875 
Q 4.984375 46.1875 4.984375 48.390625 
Q 4.984375 52.15625 6.390625 55.4375 
Q 7.8125 58.734375 10.46875 61.296875 
Q 13.140625 63.875 16.484375 65.234375 
Q 19.828125 66.609375 23.578125 66.609375 
Q 29.296875 66.609375 34.21875 64.1875 
Q 39.15625 61.765625 42.03125 57.34375 
Q 44.921875 52.9375 44.921875 47.015625 
Q 44.921875 42.671875 43.015625 38.765625 
Q 41.109375 34.859375 38.125 31.65625 
Q 35.15625 28.46875 30.515625 24.40625 
Q 25.875 20.359375 24.421875 19 
L 13.09375 8.109375 
L 22.703125 8.109375 
Q 29.78125 8.109375 34.546875 8.21875 
Q 39.3125 8.34375 39.59375 8.59375 
Q 40.765625 9.859375 42 17.828125 
L 44.921875 17.828125 
L 42.09375 0 
z
" id="Cmr10-32"/>
      </defs>
      <g transform="translate(290.920805 71.542267)scale(0.1 -0.1)">
       <use xlink:href="#Cmr10-32"/>
       <use transform="translate(50 0)" xlink:href="#Cmmi10-bc"/>
       <use transform="translate(106.982422 0)" xlink:href="#Cmmi10-3d"/>
       <use transform="translate(156.982422 0)" xlink:href="#Cmmi10-21"/>
      </g>
     </g>
    </g>
    <g id="xtick_4">
     <g id="line2d_4">
      <g>
       <use style="stroke:#000000;stroke-width:0.8;" x="431.981207" xlink:href="#mc6eeaa97c4" y="57.042267"/>
      </g>
     </g>
     <g id="text_3">
      <!-- $3\pi/\omega$ -->
      <defs>
       <path d="M 9.515625 7.71875 
Q 11.859375 4.296875 15.8125 2.640625 
Q 19.78125 0.984375 24.3125 0.984375 
Q 30.125 0.984375 32.5625 5.9375 
Q 35.015625 10.890625 35.015625 17.1875 
Q 35.015625 20.015625 34.5 22.84375 
Q 33.984375 25.6875 32.765625 28.125 
Q 31.546875 30.5625 29.421875 32.03125 
Q 27.296875 33.5 24.21875 33.5 
L 17.578125 33.5 
Q 16.703125 33.5 16.703125 34.421875 
L 16.703125 35.296875 
Q 16.703125 36.078125 17.578125 36.078125 
L 23.09375 36.53125 
Q 26.609375 36.53125 28.921875 39.15625 
Q 31.25 41.796875 32.328125 45.578125 
Q 33.40625 49.359375 33.40625 52.78125 
Q 33.40625 57.5625 31.15625 60.640625 
Q 28.90625 63.71875 24.3125 63.71875 
Q 20.515625 63.71875 17.046875 62.28125 
Q 13.578125 60.84375 11.53125 57.90625 
Q 11.71875 57.953125 11.859375 57.984375 
Q 12.015625 58.015625 12.203125 58.015625 
Q 14.453125 58.015625 15.96875 56.453125 
Q 17.484375 54.890625 17.484375 52.6875 
Q 17.484375 50.53125 15.96875 48.96875 
Q 14.453125 47.40625 12.203125 47.40625 
Q 10.015625 47.40625 8.453125 48.96875 
Q 6.890625 50.53125 6.890625 52.6875 
Q 6.890625 56.984375 9.46875 60.15625 
Q 12.0625 63.328125 16.140625 64.96875 
Q 20.21875 66.609375 24.3125 66.609375 
Q 27.34375 66.609375 30.703125 65.703125 
Q 34.078125 64.796875 36.8125 63.109375 
Q 39.546875 61.421875 41.28125 58.78125 
Q 43.015625 56.15625 43.015625 52.78125 
Q 43.015625 48.578125 41.140625 45.015625 
Q 39.265625 41.453125 35.984375 38.859375 
Q 32.71875 36.28125 28.8125 35.015625 
Q 33.15625 34.1875 37.0625 31.734375 
Q 40.96875 29.296875 43.328125 25.484375 
Q 45.703125 21.6875 45.703125 17.28125 
Q 45.703125 11.765625 42.671875 7.296875 
Q 39.65625 2.828125 34.71875 0.3125 
Q 29.78125 -2.203125 24.3125 -2.203125 
Q 19.625 -2.203125 14.90625 -0.40625 
Q 10.203125 1.375 7.203125 4.9375 
Q 4.203125 8.5 4.203125 13.484375 
Q 4.203125 15.96875 5.859375 17.625 
Q 7.515625 19.28125 10.015625 19.28125 
Q 11.625 19.28125 12.96875 18.53125 
Q 14.3125 17.78125 15.0625 16.40625 
Q 15.828125 15.046875 15.828125 13.484375 
Q 15.828125 11.03125 14.109375 9.375 
Q 12.40625 7.71875 10.015625 7.71875 
z
" id="Cmr10-33"/>
      </defs>
      <g transform="translate(420.981207 71.542267)scale(0.1 -0.1)">
       <use xlink:href="#Cmr10-33"/>
       <use transform="translate(50 0)" xlink:href="#Cmmi10-bc"/>
       <use transform="translate(106.982422 0)" xlink:href="#Cmmi10-3d"/>
       <use transform="translate(156.982422 0)" xlink:href="#Cmmi10-21"/>
      </g>
     </g>
    </g>
   </g>
   <g id="matplotlib.axis_2">
    <g id="ytick_1">
     <g id="line2d_5">
      <defs>
       <path d="M 0 0 
L -3.5 0 
" id="mc8c93dc7a1" style="stroke:#000000;stroke-width:0.8;"/>
      </defs>
      <g>
       <use style="stroke:#000000;stroke-width:0.8;" x="41.8" xlink:href="#mc8c93dc7a1" y="101.602138"/>
      </g>
     </g>
     <g id="text_4">
      <!-- $-V_s$ -->
      <defs>
       <path d="M 10.203125 23 
Q 9.375 23 8.828125 23.625 
Q 8.296875 24.265625 8.296875 25 
Q 8.296875 25.734375 8.828125 26.359375 
Q 9.375 27 10.203125 27 
L 67.578125 27 
Q 68.359375 27 68.875 26.359375 
Q 69.390625 25.734375 69.390625 25 
Q 69.390625 24.265625 68.875 23.625 
Q 68.359375 23 67.578125 23 
z
" id="Cmsy10-a1"/>
       <path d="M 22.015625 -1.125 
L 14.015625 62.59375 
Q 13.28125 64.796875 6.5 64.796875 
Q 5.515625 64.796875 5.515625 66.109375 
Q 5.71875 67.1875 6 67.75 
Q 6.296875 68.3125 7.171875 68.3125 
L 31.59375 68.3125 
Q 32.125 68.3125 32.375 67.921875 
Q 32.625 67.53125 32.625 67 
Q 32.234375 64.796875 31.296875 64.796875 
Q 23.484375 64.796875 23 62.109375 
L 29.59375 9.8125 
L 60.40625 58.984375 
Q 61.28125 60.640625 61.28125 61.625 
Q 61.28125 63.375 59.6875 64.078125 
Q 58.109375 64.796875 56 64.796875 
Q 54.984375 64.796875 54.984375 66.109375 
Q 55.171875 66.890625 55.3125 67.328125 
Q 55.46875 67.78125 55.765625 68.046875 
Q 56.0625 68.3125 56.6875 68.3125 
L 75.984375 68.3125 
Q 76.90625 68.3125 76.90625 67 
Q 76.515625 64.796875 75.59375 64.796875 
Q 68.0625 64.796875 63.8125 58.203125 
Q 63.625 58.015625 63.484375 58.015625 
L 26.609375 -1.125 
Q 25.875 -2.203125 24.703125 -2.203125 
L 23.296875 -2.203125 
Q 22.171875 -2.203125 22.015625 -1.125 
z
" id="Cmmi10-56"/>
       <path d="M 8.6875 6.109375 
Q 11.375 1.515625 19.484375 1.515625 
Q 23 1.515625 26.171875 2.703125 
Q 29.34375 3.90625 31.421875 6.296875 
Q 33.5 8.6875 33.5 12.109375 
Q 33.5 14.703125 31.640625 16.359375 
Q 29.78125 18.015625 27.09375 18.609375 
L 21.6875 19.671875 
Q 17.96875 20.609375 15.578125 23.140625 
Q 13.1875 25.6875 13.1875 29.296875 
Q 13.1875 33.734375 15.59375 37.15625 
Q 18.015625 40.578125 21.96875 42.375 
Q 25.921875 44.1875 30.171875 44.1875 
Q 34.71875 44.1875 38.296875 42.015625 
Q 41.890625 39.84375 41.890625 35.59375 
Q 41.890625 33.296875 40.59375 31.53125 
Q 39.3125 29.78125 37.015625 29.78125 
Q 35.6875 29.78125 34.734375 30.640625 
Q 33.796875 31.5 33.796875 32.8125 
Q 33.796875 33.984375 34.453125 35.078125 
Q 35.109375 36.1875 36.203125 36.84375 
Q 37.3125 37.5 38.484375 37.5 
Q 37.59375 39.65625 35.171875 40.625 
Q 32.765625 41.609375 29.984375 41.609375 
Q 27.4375 41.609375 24.890625 40.578125 
Q 22.359375 39.546875 20.8125 37.5625 
Q 19.28125 35.59375 19.28125 32.90625 
Q 19.28125 31.109375 20.546875 29.734375 
Q 21.828125 28.375 23.6875 27.78125 
L 29.5 26.609375 
Q 32.28125 26.03125 34.59375 24.53125 
Q 36.921875 23.046875 38.25 20.765625 
Q 39.59375 18.5 39.59375 15.578125 
Q 39.59375 11.859375 37.515625 8.25 
Q 35.453125 4.640625 32.421875 2.484375 
Q 27.09375 -1.125 19.390625 -1.125 
Q 14.0625 -1.125 9.609375 1.3125 
Q 5.171875 3.765625 5.171875 8.59375 
Q 5.171875 11.328125 6.75 13.34375 
Q 8.34375 15.375 11.078125 15.375 
Q 12.703125 15.375 13.796875 14.390625 
Q 14.890625 13.421875 14.890625 11.8125 
Q 14.890625 9.515625 13.171875 7.8125 
Q 11.46875 6.109375 9.1875 6.109375 
z
" id="Cmmi10-73"/>
      </defs>
      <g transform="translate(17.2 105.401357)scale(0.1 -0.1)">
       <use transform="translate(0 0.6875)" xlink:href="#Cmsy10-a1"/>
       <use transform="translate(77.685547 0.6875)" xlink:href="#Cmmi10-56"/>
       <use transform="translate(135.986328 -16.31875)scale(0.7)" xlink:href="#Cmmi10-73"/>
      </g>
     </g>
    </g>
    <g id="ytick_2">
     <g id="line2d_6">
      <g>
       <use style="stroke:#000000;stroke-width:0.8;" x="41.8" xlink:href="#mc8c93dc7a1" y="79.322203"/>
      </g>
     </g>
     <g id="text_5">
      <!-- $-V_s/2$ -->
      <g transform="translate(7.2 83.072203)scale(0.1 -0.1)">
       <use xlink:href="#Cmsy10-a1"/>
       <use transform="translate(77.685547 0)" xlink:href="#Cmmi10-56"/>
       <use transform="translate(135.986328 -17.00625)scale(0.7)" xlink:href="#Cmmi10-73"/>
       <use transform="translate(175.107812 0)" xlink:href="#Cmmi10-3d"/>
       <use transform="translate(225.107812 0)" xlink:href="#Cmr10-32"/>
      </g>
     </g>
    </g>
    <g id="ytick_3">
     <g id="line2d_7">
      <g>
       <use style="stroke:#000000;stroke-width:0.8;" x="41.8" xlink:href="#mc8c93dc7a1" y="57.042267"/>
      </g>
     </g>
    </g>
    <g id="ytick_4">
     <g id="line2d_8">
      <g>
       <use style="stroke:#000000;stroke-width:0.8;" x="41.8" xlink:href="#mc8c93dc7a1" y="34.762331"/>
      </g>
     </g>
     <g id="text_6">
      <!-- $V_s/2$ -->
      <g transform="translate(15 38.512331)scale(0.1 -0.1)">
       <use xlink:href="#Cmmi10-56"/>
       <use transform="translate(58.300781 -17.00625)scale(0.7)" xlink:href="#Cmmi10-73"/>
       <use transform="translate(97.422266 0)" xlink:href="#Cmmi10-3d"/>
       <use transform="translate(147.422266 0)" xlink:href="#Cmr10-32"/>
      </g>
     </g>
    </g>
    <g id="ytick_5">
     <g id="line2d_9">
      <g>
       <use style="stroke:#000000;stroke-width:0.8;" x="41.8" xlink:href="#mc8c93dc7a1" y="12.482395"/>
      </g>
     </g>
     <g id="text_7">
      <!-- $V_s$ -->
      <g transform="translate(25 16.281614)scale(0.1 -0.1)">
       <use transform="translate(0 0.6875)" xlink:href="#Cmmi10-56"/>
       <use transform="translate(58.300781 -16.31875)scale(0.7)" xlink:href="#Cmmi10-73"/>
      </g>
     </g>
    </g>
   </g>
   <g id="line2d_10">
    <path clip-path="url(#p603b918c6f)" d="M 41.8 34.762331 
L 41.928307 12.482395 
L 128.473022 12.482395 
L 128.619948 57.042267 
L 171.835795 57.042267 
L 171.979268 101.602138 
L 258.554672 101.602138 
L 258.62272 57.042267 
L 301.860435 57.042267 
L 302.018925 12.482395 
L 388.598085 12.482395 
L 388.689056 57.042267 
L 431.981207 57.042267 
L 431.981207 57.042267 
" style="fill:none;stroke:#0000ff;stroke-linecap:square;"/>
   </g>
   <g id="patch_3">
    <path d="M 41.8 103.384533 
L 41.8 10.7 
" style="fill:none;stroke:#000000;stroke-linecap:square;stroke-linejoin:miter;stroke-width:0.8;"/>
   </g>
   <g id="patch_4">
    <path d="M 33.996376 57.042267 
L 439.784831 57.042267 
" style="fill:none;stroke:#000000;stroke-linecap:square;stroke-linejoin:miter;stroke-width:0.8;"/>
   </g>
  </g>
  <g id="axes_2">
   <g id="patch_5">
    <path d="M 33.996376 214.984533 
L 439.784831 214.984533 
L 439.784831 122.3 
L 33.996376 122.3 
z
" style="fill:#ffffff;"/>
   </g>
   <g id="matplotlib.axis_3">
    <g id="xtick_5">
     <g id="line2d_11">
      <g>
       <use style="stroke:#000000;stroke-width:0.8;" x="41.8" xlink:href="#mc6eeaa97c4" y="168.642267"/>
      </g>
     </g>
    </g>
    <g id="xtick_6">
     <g id="line2d_12">
      <g>
       <use style="stroke:#000000;stroke-width:0.8;" x="171.860402" xlink:href="#mc6eeaa97c4" y="168.642267"/>
      </g>
     </g>
     <g id="text_8">
      <!-- $\pi/\omega$ -->
      <g transform="translate(163.360402 183.142267)scale(0.1 -0.1)">
       <use xlink:href="#Cmmi10-bc"/>
       <use transform="translate(56.982422 0)" xlink:href="#Cmmi10-3d"/>
       <use transform="translate(106.982422 0)" xlink:href="#Cmmi10-21"/>
      </g>
     </g>
    </g>
    <g id="xtick_7">
     <g id="line2d_13">
      <g>
       <use style="stroke:#000000;stroke-width:0.8;" x="301.920805" xlink:href="#mc6eeaa97c4" y="168.642267"/>
      </g>
     </g>
     <g id="text_9">
      <!-- $2\pi/\omega$ -->
      <g transform="translate(290.920805 183.142267)scale(0.1 -0.1)">
       <use xlink:href="#Cmr10-32"/>
       <use transform="translate(50 0)" xlink:href="#Cmmi10-bc"/>
       <use transform="translate(106.982422 0)" xlink:href="#Cmmi10-3d"/>
       <use transform="translate(156.982422 0)" xlink:href="#Cmmi10-21"/>
      </g>
     </g>
    </g>
    <g id="xtick_8">
     <g id="line2d_14">
      <g>
       <use style="stroke:#000000;stroke-width:0.8;" x="431.981207" xlink:href="#mc6eeaa97c4" y="168.642267"/>
      </g>
     </g>
     <g id="text_10">
      <!-- $3\pi/\omega$ -->
      <g transform="translate(420.981207 183.142267)scale(0.1 -0.1)">
       <use xlink:href="#Cmr10-33"/>
       <use transform="translate(50 0)" xlink:href="#Cmmi10-bc"/>
       <use transform="translate(106.982422 0)" xlink:href="#Cmmi10-3d"/>
       <use transform="translate(156.982422 0)" xlink:href="#Cmmi10-21"/>
      </g>
     </g>
    </g>
   </g>
   <g id="matplotlib.axis_4">
    <g id="ytick_6">
     <g id="line2d_15">
      <g>
       <use style="stroke:#000000;stroke-width:0.8;" x="41.8" xlink:href="#mc8c93dc7a1" y="213.202138"/>
      </g>
     </g>
     <g id="text_11">
      <!-- $-V_s$ -->
      <g transform="translate(17.2 217.001357)scale(0.1 -0.1)">
       <use transform="translate(0 0.6875)" xlink:href="#Cmsy10-a1"/>
       <use transform="translate(77.685547 0.6875)" xlink:href="#Cmmi10-56"/>
       <use transform="translate(135.986328 -16.31875)scale(0.7)" xlink:href="#Cmmi10-73"/>
      </g>
     </g>
    </g>
    <g id="ytick_7">
     <g id="line2d_16">
      <g>
       <use style="stroke:#000000;stroke-width:0.8;" x="41.8" xlink:href="#mc8c93dc7a1" y="190.922203"/>
      </g>
     </g>
     <g id="text_12">
      <!-- $-V_s/2$ -->
      <g transform="translate(7.2 194.672203)scale(0.1 -0.1)">
       <use xlink:href="#Cmsy10-a1"/>
       <use transform="translate(77.685547 0)" xlink:href="#Cmmi10-56"/>
       <use transform="translate(135.986328 -17.00625)scale(0.7)" xlink:href="#Cmmi10-73"/>
       <use transform="translate(175.107812 0)" xlink:href="#Cmmi10-3d"/>
       <use transform="translate(225.107812 0)" xlink:href="#Cmr10-32"/>
      </g>
     </g>
    </g>
    <g id="ytick_8">
     <g id="line2d_17">
      <g>
       <use style="stroke:#000000;stroke-width:0.8;" x="41.8" xlink:href="#mc8c93dc7a1" y="168.642267"/>
      </g>
     </g>
    </g>
    <g id="ytick_9">
     <g id="line2d_18">
      <g>
       <use style="stroke:#000000;stroke-width:0.8;" x="41.8" xlink:href="#mc8c93dc7a1" y="146.362331"/>
      </g>
     </g>
     <g id="text_13">
      <!-- $V_s/2$ -->
      <g transform="translate(15 150.112331)scale(0.1 -0.1)">
       <use xlink:href="#Cmmi10-56"/>
       <use transform="translate(58.300781 -17.00625)scale(0.7)" xlink:href="#Cmmi10-73"/>
       <use transform="translate(97.422266 0)" xlink:href="#Cmmi10-3d"/>
       <use transform="translate(147.422266 0)" xlink:href="#Cmr10-32"/>
      </g>
     </g>
    </g>
    <g id="ytick_10">
     <g id="line2d_19">
      <g>
       <use style="stroke:#000000;stroke-width:0.8;" x="41.8" xlink:href="#mc8c93dc7a1" y="124.082395"/>
      </g>
     </g>
     <g id="text_14">
      <!-- $V_s$ -->
      <g transform="translate(25 127.881614)scale(0.1 -0.1)">
       <use transform="translate(0 0.6875)" xlink:href="#Cmmi10-56"/>
       <use transform="translate(58.300781 -16.31875)scale(0.7)" xlink:href="#Cmmi10-73"/>
      </g>
     </g>
    </g>
   </g>
   <g id="line2d_20">
    <path clip-path="url(#pfd9e1a38b9)" d="M 41.8 213.202138 
L 85.138232 213.202138 
L 85.217349 168.642267 
L 128.492397 168.642267 
L 128.58526 124.082395 
L 215.174579 124.082395 
L 215.34527 168.642267 
L 258.544615 168.642267 
L 258.588468 213.202138 
L 345.27344 213.202138 
L 345.440609 168.642267 
L 388.514568 168.642267 
L 388.632212 124.082395 
L 431.981207 124.082395 
L 431.981207 124.082395 
" style="fill:none;stroke:#0000ff;stroke-linecap:square;"/>
   </g>
   <g id="patch_6">
    <path d="M 41.8 214.984533 
L 41.8 122.3 
" style="fill:none;stroke:#000000;stroke-linecap:square;stroke-linejoin:miter;stroke-width:0.8;"/>
   </g>
   <g id="patch_7">
    <path d="M 33.996376 168.642267 
L 439.784831 168.642267 
" style="fill:none;stroke:#000000;stroke-linecap:square;stroke-linejoin:miter;stroke-width:0.8;"/>
   </g>
  </g>
  <g id="axes_3">
   <g id="patch_8">
    <path d="M 33.996376 326.584533 
L 439.784831 326.584533 
L 439.784831 233.9 
L 33.996376 233.9 
z
" style="fill:#ffffff;"/>
   </g>
   <g id="matplotlib.axis_5">
    <g id="xtick_9">
     <g id="line2d_21">
      <g>
       <use style="stroke:#000000;stroke-width:0.8;" x="41.8" xlink:href="#mc6eeaa97c4" y="280.242267"/>
      </g>
     </g>
    </g>
    <g id="xtick_10">
     <g id="line2d_22">
      <g>
       <use style="stroke:#000000;stroke-width:0.8;" x="171.860402" xlink:href="#mc6eeaa97c4" y="280.242267"/>
      </g>
     </g>
     <g id="text_15">
      <!-- $\pi/\omega$ -->
      <g transform="translate(163.360402 294.742267)scale(0.1 -0.1)">
       <use xlink:href="#Cmmi10-bc"/>
       <use transform="translate(56.982422 0)" xlink:href="#Cmmi10-3d"/>
       <use transform="translate(106.982422 0)" xlink:href="#Cmmi10-21"/>
      </g>
     </g>
    </g>
    <g id="xtick_11">
     <g id="line2d_23">
      <g>
       <use style="stroke:#000000;stroke-width:0.8;" x="301.920805" xlink:href="#mc6eeaa97c4" y="280.242267"/>
      </g>
     </g>
     <g id="text_16">
      <!-- $2\pi/\omega$ -->
      <g transform="translate(290.920805 294.742267)scale(0.1 -0.1)">
       <use xlink:href="#Cmr10-32"/>
       <use transform="translate(50 0)" xlink:href="#Cmmi10-bc"/>
       <use transform="translate(106.982422 0)" xlink:href="#Cmmi10-3d"/>
       <use transform="translate(156.982422 0)" xlink:href="#Cmmi10-21"/>
      </g>
     </g>
    </g>
    <g id="xtick_12">
     <g id="line2d_24">
      <g>
       <use style="stroke:#000000;stroke-width:0.8;" x="431.981207" xlink:href="#mc6eeaa97c4" y="280.242267"/>
      </g>
     </g>
     <g id="text_17">
      <!-- $3\pi/\omega$ -->
      <g transform="translate(420.981207 294.742267)scale(0.1 -0.1)">
       <use xlink:href="#Cmr10-33"/>
       <use transform="translate(50 0)" xlink:href="#Cmmi10-bc"/>
       <use transform="translate(106.982422 0)" xlink:href="#Cmmi10-3d"/>
       <use transform="translate(156.982422 0)" xlink:href="#Cmmi10-21"/>
      </g>
     </g>
    </g>
   </g>
   <g id="matplotlib.axis_6">
    <g id="ytick_11">
     <g id="line2d_25">
      <g>
       <use style="stroke:#000000;stroke-width:0.8;" x="41.8" xlink:href="#mc8c93dc7a1" y="324.802138"/>
      </g>
     </g>
     <g id="text_18">
      <!-- $-V_s$ -->
      <g transform="translate(17.2 328.601357)scale(0.1 -0.1)">
       <use transform="translate(0 0.6875)" xlink:href="#Cmsy10-a1"/>
       <use transform="translate(77.685547 0.6875)" xlink:href="#Cmmi10-56"/>
       <use transform="translate(135.986328 -16.31875)scale(0.7)" xlink:href="#Cmmi10-73"/>
      </g>
     </g>
    </g>
    <g id="ytick_12">
     <g id="line2d_26">
      <g>
       <use style="stroke:#000000;stroke-width:0.8;" x="41.8" xlink:href="#mc8c93dc7a1" y="302.522203"/>
      </g>
     </g>
     <g id="text_19">
      <!-- $-V_s/2$ -->
      <g transform="translate(7.2 306.272203)scale(0.1 -0.1)">
       <use xlink:href="#Cmsy10-a1"/>
       <use transform="translate(77.685547 0)" xlink:href="#Cmmi10-56"/>
       <use transform="translate(135.986328 -17.00625)scale(0.7)" xlink:href="#Cmmi10-73"/>
       <use transform="translate(175.107812 0)" xlink:href="#Cmmi10-3d"/>
       <use transform="translate(225.107812 0)" xlink:href="#Cmr10-32"/>
      </g>
     </g>
    </g>
    <g id="ytick_13">
     <g id="line2d_27">
      <g>
       <use style="stroke:#000000;stroke-width:0.8;" x="41.8" xlink:href="#mc8c93dc7a1" y="280.242267"/>
      </g>
     </g>
    </g>
    <g id="ytick_14">
     <g id="line2d_28">
      <g>
       <use style="stroke:#000000;stroke-width:0.8;" x="41.8" xlink:href="#mc8c93dc7a1" y="257.962331"/>
      </g>
     </g>
     <g id="text_20">
      <!-- $V_s/2$ -->
      <g transform="translate(15 261.712331)scale(0.1 -0.1)">
       <use xlink:href="#Cmmi10-56"/>
       <use transform="translate(58.300781 -17.00625)scale(0.7)" xlink:href="#Cmmi10-73"/>
       <use transform="translate(97.422266 0)" xlink:href="#Cmmi10-3d"/>
       <use transform="translate(147.422266 0)" xlink:href="#Cmr10-32"/>
      </g>
     </g>
    </g>
    <g id="ytick_15">
     <g id="line2d_29">
      <g>
       <use style="stroke:#000000;stroke-width:0.8;" x="41.8" xlink:href="#mc8c93dc7a1" y="235.682395"/>
      </g>
     </g>
     <g id="text_21">
      <!-- $V_s$ -->
      <g transform="translate(25 239.481614)scale(0.1 -0.1)">
       <use transform="translate(0 0.6875)" xlink:href="#Cmmi10-56"/>
       <use transform="translate(58.300781 -16.31875)scale(0.7)" xlink:href="#Cmmi10-73"/>
      </g>
     </g>
    </g>
   </g>
   <g id="line2d_30">
    <path clip-path="url(#p4748168054)" d="M 41.8 257.962331 
L 41.938392 280.242267 
L 85.093029 280.242267 
L 85.258758 324.802138 
L 171.776856 324.802138 
L 171.961475 280.242267 
L 215.175248 280.242267 
L 215.226089 235.682395 
L 301.858873 235.682395 
L 301.997697 280.242267 
L 345.223523 280.242267 
L 345.348233 324.802138 
L 431.981207 324.802138 
L 431.981207 324.802138 
" style="fill:none;stroke:#0000ff;stroke-linecap:square;"/>
   </g>
   <g id="patch_9">
    <path d="M 41.8 326.584533 
L 41.8 233.9 
" style="fill:none;stroke:#000000;stroke-linecap:square;stroke-linejoin:miter;stroke-width:0.8;"/>
   </g>
   <g id="patch_10">
    <path d="M 33.996376 280.242267 
L 439.784831 280.242267 
" style="fill:none;stroke:#000000;stroke-linecap:square;stroke-linejoin:miter;stroke-width:0.8;"/>
   </g>
  </g>
 </g>
 <defs>
  <clipPath id="p603b918c6f">
   <rect height="92.684533" width="405.788456" x="33.996376" y="10.7"/>
  </clipPath>
  <clipPath id="pfd9e1a38b9">
   <rect height="92.684533" width="405.788456" x="33.996376" y="122.3"/>
  </clipPath>
  <clipPath id="p4748168054">
   <rect height="92.684533" width="405.788456" x="33.996376" y="233.9"/>
  </clipPath>
 </defs>
</svg>
