<?xml version="1.0" encoding="utf-8" standalone="no"?>
<!DOCTYPE svg PUBLIC "-//W3C//DTD SVG 1.1//EN"
  "http://www.w3.org/Graphics/SVG/1.1/DTD/svg11.dtd">
<!-- Created with matplotlib (http://matplotlib.org/) -->
<svg height="336.514173pt" version="1.1" viewBox="0 0 450.484831 336.514173" width="450.484831pt" xmlns="http://www.w3.org/2000/svg" xmlns:xlink="http://www.w3.org/1999/xlink">
 <defs>
  <style type="text/css">
*{stroke-linecap:butt;stroke-linejoin:round;}
  </style>
 </defs>
 <g id="figure_1">
  <g id="patch_1">
   <path d="M 0 336.514173 
L 450.484831 336.514173 
L 450.484831 0 
L 0 0 
z
" style="fill:#ffffff;"/>
  </g>
  <g id="axes_1">
   <g id="patch_2">
    <path d="M 33.996376 34.596181 
L 439.784831 34.596181 
L 439.784831 20.798437 
L 33.996376 20.798437 
z
" style="fill:#ffffff;"/>
   </g>
   <g id="matplotlib.axis_1">
    <g id="xtick_1">
     <g id="line2d_1">
      <defs>
       <path d="M 0 0 
L 0 3.5 
" id="med6eaea67c" style="stroke:#000000;stroke-width:0.8;"/>
      </defs>
      <g>
       <use style="stroke:#000000;stroke-width:0.8;" x="41.8" xlink:href="#med6eaea67c" y="34.33084"/>
      </g>
     </g>
    </g>
    <g id="xtick_2">
     <g id="line2d_2">
      <g>
       <use style="stroke:#000000;stroke-width:0.8;" x="171.860402" xlink:href="#med6eaea67c" y="34.33084"/>
      </g>
     </g>
     <g id="text_1">
      <!-- $\pi/\omega$ -->
      <defs>
       <path d="M 10.109375 1.703125 
Q 10.109375 2.25 10.5 3.328125 
Q 13.28125 9.125 15.6875 14.71875 
Q 18.109375 20.3125 20.03125 25.609375 
Q 21.96875 30.90625 23.578125 36.921875 
L 17.1875 36.921875 
Q 13.53125 36.921875 10.34375 34.625 
Q 7.171875 32.328125 5.078125 28.8125 
Q 4.890625 28.421875 4.5 28.421875 
L 3.328125 28.421875 
Q 2.390625 28.421875 2.390625 29.390625 
Q 2.390625 29.59375 2.59375 29.984375 
Q 5.859375 35.546875 9.59375 39.328125 
Q 13.328125 43.109375 18.015625 43.109375 
L 54.296875 43.109375 
Q 55.328125 43.109375 56.046875 42.421875 
Q 56.78125 41.75 56.78125 40.578125 
Q 56.78125 39.109375 55.734375 38.015625 
Q 54.6875 36.921875 53.21875 36.921875 
L 40.484375 36.921875 
Q 38.875 29.046875 38.71875 21.578125 
Q 38.71875 11.96875 42.09375 4.203125 
Q 42.390625 3.609375 42.390625 2.984375 
Q 42.390625 1.90625 41.75 0.96875 
Q 41.109375 0.046875 40.109375 -0.53125 
Q 39.109375 -1.125 37.984375 -1.125 
Q 35.359375 -1.125 34.375 3.171875 
Q 33.40625 7.46875 33.40625 11.53125 
Q 33.40625 17.234375 34.375 22.53125 
Q 35.359375 27.828125 37.5 36.921875 
L 26.609375 36.921875 
Q 18.703125 4.890625 17.09375 1.609375 
Q 15.671875 -1.125 13.1875 -1.125 
Q 11.96875 -1.125 11.03125 -0.3125 
Q 10.109375 0.484375 10.109375 1.703125 
z
" id="Cmmi10-bc"/>
       <path d="M 5.609375 -23 
Q 5.609375 -22.703125 5.71875 -22.609375 
L 40.484375 73.78125 
Q 40.671875 74.359375 41.15625 74.671875 
Q 41.65625 75 42.28125 75 
Q 43.171875 75 43.71875 74.453125 
Q 44.28125 73.921875 44.28125 73 
L 44.28125 72.609375 
L 9.515625 -23.78125 
Q 8.9375 -25 7.625 -25 
Q 6.78125 -25 6.1875 -24.40625 
Q 5.609375 -23.828125 5.609375 -23 
z
" id="Cmmi10-3d"/>
       <path d="M 12.109375 -1.125 
Q 6.453125 -1.125 3.9375 3.015625 
Q 1.421875 7.171875 1.421875 13.1875 
Q 1.421875 17.140625 2.125 20.921875 
Q 2.828125 24.703125 4.265625 28.578125 
Q 5.71875 32.46875 7.5625 35.859375 
Q 9.421875 39.265625 11.71875 42.484375 
Q 12.15625 43.109375 12.890625 43.109375 
Q 13.53125 43.109375 13.921875 42.71875 
Q 14.3125 42.328125 14.3125 41.796875 
Q 14.3125 41.265625 14.015625 40.828125 
Q 4.890625 28.265625 4.890625 17.671875 
Q 4.890625 13.09375 7 9.796875 
Q 9.125 6.5 13.484375 6.5 
Q 17.234375 6.5 20.4375 8.6875 
Q 23.640625 10.890625 25.984375 14.3125 
Q 25.984375 16.0625 26.59375 19.765625 
Q 27.203125 23.484375 28.484375 26.390625 
Q 29.78125 29.296875 31.59375 29.296875 
Q 33.890625 29.296875 33.890625 26.609375 
Q 33.890625 25.046875 33.21875 22.671875 
Q 32.5625 20.3125 31.75 18.265625 
Q 30.953125 16.21875 29.78125 13.625 
Q 30.953125 6.5 36.921875 6.5 
Q 40.375 6.5 43.859375 8.5 
Q 47.359375 10.5 50.046875 13.75 
Q 52.734375 17 54.265625 20.75 
Q 55.8125 24.515625 55.8125 27.875 
Q 55.8125 30.90625 54.859375 32.59375 
Q 53.90625 34.28125 52.34375 36.125 
Q 50.78125 37.984375 50.78125 39.109375 
Q 50.78125 41.0625 52.4375 42.671875 
Q 54.109375 44.28125 56 44.28125 
Q 58.453125 44.28125 59.46875 42.0625 
Q 60.5 39.84375 60.5 37.015625 
Q 60.5 32.421875 58.671875 25.4375 
Q 56.84375 18.453125 54.5 13.8125 
Q 51.265625 7.515625 46.40625 3.1875 
Q 41.546875 -1.125 35.5 -1.125 
Q 31.640625 -1.125 29.265625 1.1875 
Q 26.90625 3.515625 26.21875 7.515625 
Q 23.4375 3.5625 19.875 1.21875 
Q 16.3125 -1.125 12.109375 -1.125 
z
" id="Cmmi10-21"/>
      </defs>
      <g transform="translate(163.360402 48.83084)scale(0.1 -0.1)">
       <use xlink:href="#Cmmi10-bc"/>
       <use transform="translate(56.982422 0)" xlink:href="#Cmmi10-3d"/>
       <use transform="translate(106.982422 0)" xlink:href="#Cmmi10-21"/>
      </g>
     </g>
    </g>
    <g id="xtick_3">
     <g id="line2d_3">
      <g>
       <use style="stroke:#000000;stroke-width:0.8;" x="301.920805" xlink:href="#med6eaea67c" y="34.33084"/>
      </g>
     </g>
     <g id="text_2">
      <!-- $2\pi/\omega$ -->
      <defs>
       <path d="M 4.984375 0 
L 4.984375 2.6875 
Q 4.984375 2.9375 5.171875 3.21875 
L 20.703125 20.40625 
Q 24.21875 24.21875 26.40625 26.796875 
Q 28.609375 29.390625 30.75 32.765625 
Q 32.90625 36.140625 34.15625 39.625 
Q 35.40625 43.109375 35.40625 47.015625 
Q 35.40625 51.125 33.890625 54.859375 
Q 32.375 58.59375 29.375 60.84375 
Q 26.375 63.09375 22.125 63.09375 
Q 17.78125 63.09375 14.3125 60.46875 
Q 10.84375 57.859375 9.421875 53.71875 
Q 9.8125 53.8125 10.5 53.8125 
Q 12.75 53.8125 14.328125 52.296875 
Q 15.921875 50.78125 15.921875 48.390625 
Q 15.921875 46.09375 14.328125 44.5 
Q 12.75 42.921875 10.5 42.921875 
Q 8.15625 42.921875 6.5625 44.546875 
Q 4.984375 46.1875 4.984375 48.390625 
Q 4.984375 52.15625 6.390625 55.4375 
Q 7.8125 58.734375 10.46875 61.296875 
Q 13.140625 63.875 16.484375 65.234375 
Q 19.828125 66.609375 23.578125 66.609375 
Q 29.296875 66.609375 34.21875 64.1875 
Q 39.15625 61.765625 42.03125 57.34375 
Q 44.921875 52.9375 44.921875 47.015625 
Q 44.921875 42.671875 43.015625 38.765625 
Q 41.109375 34.859375 38.125 31.65625 
Q 35.15625 28.46875 30.515625 24.40625 
Q 25.875 20.359375 24.421875 19 
L 13.09375 8.109375 
L 22.703125 8.109375 
Q 29.78125 8.109375 34.546875 8.21875 
Q 39.3125 8.34375 39.59375 8.59375 
Q 40.765625 9.859375 42 17.828125 
L 44.921875 17.828125 
L 42.09375 0 
z
" id="Cmr10-32"/>
      </defs>
      <g transform="translate(290.920805 48.83084)scale(0.1 -0.1)">
       <use xlink:href="#Cmr10-32"/>
       <use transform="translate(50 0)" xlink:href="#Cmmi10-bc"/>
       <use transform="translate(106.982422 0)" xlink:href="#Cmmi10-3d"/>
       <use transform="translate(156.982422 0)" xlink:href="#Cmmi10-21"/>
      </g>
     </g>
    </g>
    <g id="xtick_4">
     <g id="line2d_4">
      <g>
       <use style="stroke:#000000;stroke-width:0.8;" x="431.981207" xlink:href="#med6eaea67c" y="34.33084"/>
      </g>
     </g>
     <g id="text_3">
      <!-- $3\pi/\omega$ -->
      <defs>
       <path d="M 9.515625 7.71875 
Q 11.859375 4.296875 15.8125 2.640625 
Q 19.78125 0.984375 24.3125 0.984375 
Q 30.125 0.984375 32.5625 5.9375 
Q 35.015625 10.890625 35.015625 17.1875 
Q 35.015625 20.015625 34.5 22.84375 
Q 33.984375 25.6875 32.765625 28.125 
Q 31.546875 30.5625 29.421875 32.03125 
Q 27.296875 33.5 24.21875 33.5 
L 17.578125 33.5 
Q 16.703125 33.5 16.703125 34.421875 
L 16.703125 35.296875 
Q 16.703125 36.078125 17.578125 36.078125 
L 23.09375 36.53125 
Q 26.609375 36.53125 28.921875 39.15625 
Q 31.25 41.796875 32.328125 45.578125 
Q 33.40625 49.359375 33.40625 52.78125 
Q 33.40625 57.5625 31.15625 60.640625 
Q 28.90625 63.71875 24.3125 63.71875 
Q 20.515625 63.71875 17.046875 62.28125 
Q 13.578125 60.84375 11.53125 57.90625 
Q 11.71875 57.953125 11.859375 57.984375 
Q 12.015625 58.015625 12.203125 58.015625 
Q 14.453125 58.015625 15.96875 56.453125 
Q 17.484375 54.890625 17.484375 52.6875 
Q 17.484375 50.53125 15.96875 48.96875 
Q 14.453125 47.40625 12.203125 47.40625 
Q 10.015625 47.40625 8.453125 48.96875 
Q 6.890625 50.53125 6.890625 52.6875 
Q 6.890625 56.984375 9.46875 60.15625 
Q 12.0625 63.328125 16.140625 64.96875 
Q 20.21875 66.609375 24.3125 66.609375 
Q 27.34375 66.609375 30.703125 65.703125 
Q 34.078125 64.796875 36.8125 63.109375 
Q 39.546875 61.421875 41.28125 58.78125 
Q 43.015625 56.15625 43.015625 52.78125 
Q 43.015625 48.578125 41.140625 45.015625 
Q 39.265625 41.453125 35.984375 38.859375 
Q 32.71875 36.28125 28.8125 35.015625 
Q 33.15625 34.1875 37.0625 31.734375 
Q 40.96875 29.296875 43.328125 25.484375 
Q 45.703125 21.6875 45.703125 17.28125 
Q 45.703125 11.765625 42.671875 7.296875 
Q 39.65625 2.828125 34.71875 0.3125 
Q 29.78125 -2.203125 24.3125 -2.203125 
Q 19.625 -2.203125 14.90625 -0.40625 
Q 10.203125 1.375 7.203125 4.9375 
Q 4.203125 8.5 4.203125 13.484375 
Q 4.203125 15.96875 5.859375 17.625 
Q 7.515625 19.28125 10.015625 19.28125 
Q 11.625 19.28125 12.96875 18.53125 
Q 14.3125 17.78125 15.0625 16.40625 
Q 15.828125 15.046875 15.828125 13.484375 
Q 15.828125 11.03125 14.109375 9.375 
Q 12.40625 7.71875 10.015625 7.71875 
z
" id="Cmr10-33"/>
      </defs>
      <g transform="translate(420.981207 48.83084)scale(0.1 -0.1)">
       <use xlink:href="#Cmr10-33"/>
       <use transform="translate(50 0)" xlink:href="#Cmmi10-bc"/>
       <use transform="translate(106.982422 0)" xlink:href="#Cmmi10-3d"/>
       <use transform="translate(156.982422 0)" xlink:href="#Cmmi10-21"/>
      </g>
     </g>
    </g>
   </g>
   <g id="matplotlib.axis_2">
    <g id="ytick_1">
     <g id="line2d_5">
      <defs>
       <path d="M 0 0 
L -3.5 0 
" id="m87d0930e01" style="stroke:#000000;stroke-width:0.8;"/>
      </defs>
      <g>
       <use style="stroke:#000000;stroke-width:0.8;" x="41.8" xlink:href="#m87d0930e01" y="34.33084"/>
      </g>
     </g>
    </g>
    <g id="ytick_2">
     <g id="line2d_6">
      <g>
       <use style="stroke:#000000;stroke-width:0.8;" x="41.8" xlink:href="#m87d0930e01" y="21.063779"/>
      </g>
     </g>
     <g id="text_4">
      <!-- $V_s/2$ -->
      <defs>
       <path d="M 22.015625 -1.125 
L 14.015625 62.59375 
Q 13.28125 64.796875 6.5 64.796875 
Q 5.515625 64.796875 5.515625 66.109375 
Q 5.71875 67.1875 6 67.75 
Q 6.296875 68.3125 7.171875 68.3125 
L 31.59375 68.3125 
Q 32.125 68.3125 32.375 67.921875 
Q 32.625 67.53125 32.625 67 
Q 32.234375 64.796875 31.296875 64.796875 
Q 23.484375 64.796875 23 62.109375 
L 29.59375 9.8125 
L 60.40625 58.984375 
Q 61.28125 60.640625 61.28125 61.625 
Q 61.28125 63.375 59.6875 64.078125 
Q 58.109375 64.796875 56 64.796875 
Q 54.984375 64.796875 54.984375 66.109375 
Q 55.171875 66.890625 55.3125 67.328125 
Q 55.46875 67.78125 55.765625 68.046875 
Q 56.0625 68.3125 56.6875 68.3125 
L 75.984375 68.3125 
Q 76.90625 68.3125 76.90625 67 
Q 76.515625 64.796875 75.59375 64.796875 
Q 68.0625 64.796875 63.8125 58.203125 
Q 63.625 58.015625 63.484375 58.015625 
L 26.609375 -1.125 
Q 25.875 -2.203125 24.703125 -2.203125 
L 23.296875 -2.203125 
Q 22.171875 -2.203125 22.015625 -1.125 
z
" id="Cmmi10-56"/>
       <path d="M 8.6875 6.109375 
Q 11.375 1.515625 19.484375 1.515625 
Q 23 1.515625 26.171875 2.703125 
Q 29.34375 3.90625 31.421875 6.296875 
Q 33.5 8.6875 33.5 12.109375 
Q 33.5 14.703125 31.640625 16.359375 
Q 29.78125 18.015625 27.09375 18.609375 
L 21.6875 19.671875 
Q 17.96875 20.609375 15.578125 23.140625 
Q 13.1875 25.6875 13.1875 29.296875 
Q 13.1875 33.734375 15.59375 37.15625 
Q 18.015625 40.578125 21.96875 42.375 
Q 25.921875 44.1875 30.171875 44.1875 
Q 34.71875 44.1875 38.296875 42.015625 
Q 41.890625 39.84375 41.890625 35.59375 
Q 41.890625 33.296875 40.59375 31.53125 
Q 39.3125 29.78125 37.015625 29.78125 
Q 35.6875 29.78125 34.734375 30.640625 
Q 33.796875 31.5 33.796875 32.8125 
Q 33.796875 33.984375 34.453125 35.078125 
Q 35.109375 36.1875 36.203125 36.84375 
Q 37.3125 37.5 38.484375 37.5 
Q 37.59375 39.65625 35.171875 40.625 
Q 32.765625 41.609375 29.984375 41.609375 
Q 27.4375 41.609375 24.890625 40.578125 
Q 22.359375 39.546875 20.8125 37.5625 
Q 19.28125 35.59375 19.28125 32.90625 
Q 19.28125 31.109375 20.546875 29.734375 
Q 21.828125 28.375 23.6875 27.78125 
L 29.5 26.609375 
Q 32.28125 26.03125 34.59375 24.53125 
Q 36.921875 23.046875 38.25 20.765625 
Q 39.59375 18.5 39.59375 15.578125 
Q 39.59375 11.859375 37.515625 8.25 
Q 35.453125 4.640625 32.421875 2.484375 
Q 27.09375 -1.125 19.390625 -1.125 
Q 14.0625 -1.125 9.609375 1.3125 
Q 5.171875 3.765625 5.171875 8.59375 
Q 5.171875 11.328125 6.75 13.34375 
Q 8.34375 15.375 11.078125 15.375 
Q 12.703125 15.375 13.796875 14.390625 
Q 14.890625 13.421875 14.890625 11.8125 
Q 14.890625 9.515625 13.171875 7.8125 
Q 11.46875 6.109375 9.1875 6.109375 
z
" id="Cmmi10-73"/>
      </defs>
      <g transform="translate(15 24.813779)scale(0.1 -0.1)">
       <use xlink:href="#Cmmi10-56"/>
       <use transform="translate(58.300781 -17.00625)scale(0.7)" xlink:href="#Cmmi10-73"/>
       <use transform="translate(97.422266 0)" xlink:href="#Cmmi10-3d"/>
       <use transform="translate(147.422266 0)" xlink:href="#Cmr10-32"/>
      </g>
     </g>
    </g>
   </g>
   <g id="line2d_7">
    <path clip-path="url(#p37209b7a1b)" d="M 41.8 27.697309 
L 41.92763 21.063779 
L 171.83372 21.063779 
L 171.919831 34.33084 
L 301.885543 34.33084 
L 302.033412 21.063779 
L 431.981207 21.063779 
L 431.981207 21.063779 
" style="fill:none;stroke:#0000ff;stroke-linecap:square;"/>
   </g>
   <g id="patch_3">
    <path d="M 41.8 34.596181 
L 41.8 20.798437 
" style="fill:none;stroke:#000000;stroke-linecap:square;stroke-linejoin:miter;stroke-width:0.8;"/>
   </g>
   <g id="patch_4">
    <path d="M 33.996376 34.33084 
L 439.784831 34.33084 
" style="fill:none;stroke:#000000;stroke-linecap:square;stroke-linejoin:miter;stroke-width:0.8;"/>
   </g>
   <g id="text_5">
    <!-- Q1 -->
    <defs>
     <path d="M 39.40625 66.21875 
Q 28.65625 66.21875 22.328125 58.203125 
Q 16.015625 50.203125 16.015625 36.375 
Q 16.015625 22.609375 22.328125 14.59375 
Q 28.65625 6.59375 39.40625 6.59375 
Q 50.140625 6.59375 56.421875 14.59375 
Q 62.703125 22.609375 62.703125 36.375 
Q 62.703125 50.203125 56.421875 58.203125 
Q 50.140625 66.21875 39.40625 66.21875 
z
M 53.21875 1.3125 
L 66.21875 -12.890625 
L 54.296875 -12.890625 
L 43.5 -1.21875 
Q 41.890625 -1.3125 41.03125 -1.359375 
Q 40.1875 -1.421875 39.40625 -1.421875 
Q 24.03125 -1.421875 14.8125 8.859375 
Q 5.609375 19.140625 5.609375 36.375 
Q 5.609375 53.65625 14.8125 63.9375 
Q 24.03125 74.21875 39.40625 74.21875 
Q 54.734375 74.21875 63.90625 63.9375 
Q 73.09375 53.65625 73.09375 36.375 
Q 73.09375 23.6875 67.984375 14.640625 
Q 62.890625 5.609375 53.21875 1.3125 
z
" id="DejaVuSans-51"/>
     <path d="M 12.40625 8.296875 
L 28.515625 8.296875 
L 28.515625 63.921875 
L 10.984375 60.40625 
L 10.984375 69.390625 
L 28.421875 72.90625 
L 38.28125 72.90625 
L 38.28125 8.296875 
L 54.390625 8.296875 
L 54.390625 0 
L 12.40625 0 
z
" id="DejaVuSans-31"/>
    </defs>
    <g transform="translate(229.773416 14.798437)scale(0.1 -0.1)">
     <use xlink:href="#DejaVuSans-51"/>
     <use x="78.710938" xlink:href="#DejaVuSans-31"/>
    </g>
   </g>
  </g>
  <g id="axes_2">
   <g id="patch_5">
    <path d="M 33.996376 92.342848 
L 439.784831 92.342848 
L 439.784831 78.545104 
L 33.996376 78.545104 
z
" style="fill:#ffffff;"/>
   </g>
   <g id="matplotlib.axis_3">
    <g id="xtick_5">
     <g id="line2d_8">
      <g>
       <use style="stroke:#000000;stroke-width:0.8;" x="41.8" xlink:href="#med6eaea67c" y="78.810445"/>
      </g>
     </g>
    </g>
    <g id="xtick_6">
     <g id="line2d_9">
      <g>
       <use style="stroke:#000000;stroke-width:0.8;" x="171.860402" xlink:href="#med6eaea67c" y="78.810445"/>
      </g>
     </g>
     <g id="text_6">
      <!-- $\pi/\omega$ -->
      <g transform="translate(163.360402 93.310445)scale(0.1 -0.1)">
       <use xlink:href="#Cmmi10-bc"/>
       <use transform="translate(56.982422 0)" xlink:href="#Cmmi10-3d"/>
       <use transform="translate(106.982422 0)" xlink:href="#Cmmi10-21"/>
      </g>
     </g>
    </g>
    <g id="xtick_7">
     <g id="line2d_10">
      <g>
       <use style="stroke:#000000;stroke-width:0.8;" x="301.920805" xlink:href="#med6eaea67c" y="78.810445"/>
      </g>
     </g>
     <g id="text_7">
      <!-- $2\pi/\omega$ -->
      <g transform="translate(290.920805 93.310445)scale(0.1 -0.1)">
       <use xlink:href="#Cmr10-32"/>
       <use transform="translate(50 0)" xlink:href="#Cmmi10-bc"/>
       <use transform="translate(106.982422 0)" xlink:href="#Cmmi10-3d"/>
       <use transform="translate(156.982422 0)" xlink:href="#Cmmi10-21"/>
      </g>
     </g>
    </g>
    <g id="xtick_8">
     <g id="line2d_11">
      <g>
       <use style="stroke:#000000;stroke-width:0.8;" x="431.981207" xlink:href="#med6eaea67c" y="78.810445"/>
      </g>
     </g>
     <g id="text_8">
      <!-- $3\pi/\omega$ -->
      <g transform="translate(420.981207 93.310445)scale(0.1 -0.1)">
       <use xlink:href="#Cmr10-33"/>
       <use transform="translate(50 0)" xlink:href="#Cmmi10-bc"/>
       <use transform="translate(106.982422 0)" xlink:href="#Cmmi10-3d"/>
       <use transform="translate(156.982422 0)" xlink:href="#Cmmi10-21"/>
      </g>
     </g>
    </g>
   </g>
   <g id="matplotlib.axis_4">
    <g id="ytick_3">
     <g id="line2d_12">
      <g>
       <use style="stroke:#000000;stroke-width:0.8;" x="41.8" xlink:href="#m87d0930e01" y="92.077507"/>
      </g>
     </g>
     <g id="text_9">
      <!-- $-V_s/2$ -->
      <defs>
       <path d="M 10.203125 23 
Q 9.375 23 8.828125 23.625 
Q 8.296875 24.265625 8.296875 25 
Q 8.296875 25.734375 8.828125 26.359375 
Q 9.375 27 10.203125 27 
L 67.578125 27 
Q 68.359375 27 68.875 26.359375 
Q 69.390625 25.734375 69.390625 25 
Q 69.390625 24.265625 68.875 23.625 
Q 68.359375 23 67.578125 23 
z
" id="Cmsy10-a1"/>
      </defs>
      <g transform="translate(7.2 95.827507)scale(0.1 -0.1)">
       <use xlink:href="#Cmsy10-a1"/>
       <use transform="translate(77.685547 0)" xlink:href="#Cmmi10-56"/>
       <use transform="translate(135.986328 -17.00625)scale(0.7)" xlink:href="#Cmmi10-73"/>
       <use transform="translate(175.107812 0)" xlink:href="#Cmmi10-3d"/>
       <use transform="translate(225.107812 0)" xlink:href="#Cmr10-32"/>
      </g>
     </g>
    </g>
    <g id="ytick_4">
     <g id="line2d_13">
      <g>
       <use style="stroke:#000000;stroke-width:0.8;" x="41.8" xlink:href="#m87d0930e01" y="78.810445"/>
      </g>
     </g>
    </g>
   </g>
   <g id="line2d_14">
    <path clip-path="url(#pb827f75d0a)" d="M 41.8 78.810445 
L 85.081068 78.810445 
L 85.226283 92.077507 
L 215.178233 92.077507 
L 215.294906 78.810445 
L 345.244382 78.810445 
L 345.398745 92.077507 
L 431.981207 92.077507 
L 431.981207 92.077507 
" style="fill:none;stroke:#0000ff;stroke-linecap:square;"/>
   </g>
   <g id="patch_6">
    <path d="M 41.8 92.342848 
L 41.8 78.545104 
" style="fill:none;stroke:#000000;stroke-linecap:square;stroke-linejoin:miter;stroke-width:0.8;"/>
   </g>
   <g id="patch_7">
    <path d="M 33.996376 78.810445 
L 439.784831 78.810445 
" style="fill:none;stroke:#000000;stroke-linecap:square;stroke-linejoin:miter;stroke-width:0.8;"/>
   </g>
   <g id="text_10">
    <!-- Q2 -->
    <defs>
     <path d="M 19.1875 8.296875 
L 53.609375 8.296875 
L 53.609375 0 
L 7.328125 0 
L 7.328125 8.296875 
Q 12.9375 14.109375 22.625 23.890625 
Q 32.328125 33.6875 34.8125 36.53125 
Q 39.546875 41.84375 41.421875 45.53125 
Q 43.3125 49.21875 43.3125 52.78125 
Q 43.3125 58.59375 39.234375 62.25 
Q 35.15625 65.921875 28.609375 65.921875 
Q 23.96875 65.921875 18.8125 64.3125 
Q 13.671875 62.703125 7.8125 59.421875 
L 7.8125 69.390625 
Q 13.765625 71.78125 18.9375 73 
Q 24.125 74.21875 28.421875 74.21875 
Q 39.75 74.21875 46.484375 68.546875 
Q 53.21875 62.890625 53.21875 53.421875 
Q 53.21875 48.921875 51.53125 44.890625 
Q 49.859375 40.875 45.40625 35.40625 
Q 44.1875 33.984375 37.640625 27.21875 
Q 31.109375 20.453125 19.1875 8.296875 
z
" id="DejaVuSans-32"/>
    </defs>
    <g transform="translate(229.773416 72.545104)scale(0.1 -0.1)">
     <use xlink:href="#DejaVuSans-51"/>
     <use x="78.710938" xlink:href="#DejaVuSans-32"/>
    </g>
   </g>
  </g>
  <g id="axes_3">
   <g id="patch_8">
    <path d="M 33.996376 150.089514 
L 439.784831 150.089514 
L 439.784831 136.291771 
L 33.996376 136.291771 
z
" style="fill:#ffffff;"/>
   </g>
   <g id="matplotlib.axis_5">
    <g id="xtick_9">
     <g id="line2d_15">
      <g>
       <use style="stroke:#000000;stroke-width:0.8;" x="41.8" xlink:href="#med6eaea67c" y="149.824173"/>
      </g>
     </g>
    </g>
    <g id="xtick_10">
     <g id="line2d_16">
      <g>
       <use style="stroke:#000000;stroke-width:0.8;" x="171.860402" xlink:href="#med6eaea67c" y="149.824173"/>
      </g>
     </g>
     <g id="text_11">
      <!-- $\pi/\omega$ -->
      <g transform="translate(163.360402 164.324173)scale(0.1 -0.1)">
       <use xlink:href="#Cmmi10-bc"/>
       <use transform="translate(56.982422 0)" xlink:href="#Cmmi10-3d"/>
       <use transform="translate(106.982422 0)" xlink:href="#Cmmi10-21"/>
      </g>
     </g>
    </g>
    <g id="xtick_11">
     <g id="line2d_17">
      <g>
       <use style="stroke:#000000;stroke-width:0.8;" x="301.920805" xlink:href="#med6eaea67c" y="149.824173"/>
      </g>
     </g>
     <g id="text_12">
      <!-- $2\pi/\omega$ -->
      <g transform="translate(290.920805 164.324173)scale(0.1 -0.1)">
       <use xlink:href="#Cmr10-32"/>
       <use transform="translate(50 0)" xlink:href="#Cmmi10-bc"/>
       <use transform="translate(106.982422 0)" xlink:href="#Cmmi10-3d"/>
       <use transform="translate(156.982422 0)" xlink:href="#Cmmi10-21"/>
      </g>
     </g>
    </g>
    <g id="xtick_12">
     <g id="line2d_18">
      <g>
       <use style="stroke:#000000;stroke-width:0.8;" x="431.981207" xlink:href="#med6eaea67c" y="149.824173"/>
      </g>
     </g>
     <g id="text_13">
      <!-- $3\pi/\omega$ -->
      <g transform="translate(420.981207 164.324173)scale(0.1 -0.1)">
       <use xlink:href="#Cmr10-33"/>
       <use transform="translate(50 0)" xlink:href="#Cmmi10-bc"/>
       <use transform="translate(106.982422 0)" xlink:href="#Cmmi10-3d"/>
       <use transform="translate(156.982422 0)" xlink:href="#Cmmi10-21"/>
      </g>
     </g>
    </g>
   </g>
   <g id="matplotlib.axis_6">
    <g id="ytick_5">
     <g id="line2d_19">
      <g>
       <use style="stroke:#000000;stroke-width:0.8;" x="41.8" xlink:href="#m87d0930e01" y="149.824173"/>
      </g>
     </g>
    </g>
    <g id="ytick_6">
     <g id="line2d_20">
      <g>
       <use style="stroke:#000000;stroke-width:0.8;" x="41.8" xlink:href="#m87d0930e01" y="136.557112"/>
      </g>
     </g>
     <g id="text_14">
      <!-- $V_s/2$ -->
      <g transform="translate(15 140.307112)scale(0.1 -0.1)">
       <use xlink:href="#Cmmi10-56"/>
       <use transform="translate(58.300781 -17.00625)scale(0.7)" xlink:href="#Cmmi10-73"/>
       <use transform="translate(97.422266 0)" xlink:href="#Cmmi10-3d"/>
       <use transform="translate(147.422266 0)" xlink:href="#Cmr10-32"/>
      </g>
     </g>
    </g>
   </g>
   <g id="line2d_21">
    <path clip-path="url(#pb72c3f26ae)" d="M 41.8 149.824173 
L 128.489904 149.824173 
L 128.577948 136.557112 
L 258.527211 136.557112 
L 258.725714 149.824173 
L 388.533234 149.824173 
L 388.733009 136.557112 
L 431.981207 136.557112 
L 431.981207 136.557112 
" style="fill:none;stroke:#0000ff;stroke-linecap:square;"/>
   </g>
   <g id="patch_9">
    <path d="M 41.8 150.089514 
L 41.8 136.291771 
" style="fill:none;stroke:#000000;stroke-linecap:square;stroke-linejoin:miter;stroke-width:0.8;"/>
   </g>
   <g id="patch_10">
    <path d="M 33.996376 149.824173 
L 439.784831 149.824173 
" style="fill:none;stroke:#000000;stroke-linecap:square;stroke-linejoin:miter;stroke-width:0.8;"/>
   </g>
   <g id="text_15">
    <!-- Q3 -->
    <defs>
     <path d="M 40.578125 39.3125 
Q 47.65625 37.796875 51.625 33 
Q 55.609375 28.21875 55.609375 21.1875 
Q 55.609375 10.40625 48.1875 4.484375 
Q 40.765625 -1.421875 27.09375 -1.421875 
Q 22.515625 -1.421875 17.65625 -0.515625 
Q 12.796875 0.390625 7.625 2.203125 
L 7.625 11.71875 
Q 11.71875 9.328125 16.59375 8.109375 
Q 21.484375 6.890625 26.8125 6.890625 
Q 36.078125 6.890625 40.9375 10.546875 
Q 45.796875 14.203125 45.796875 21.1875 
Q 45.796875 27.640625 41.28125 31.265625 
Q 36.765625 34.90625 28.71875 34.90625 
L 20.21875 34.90625 
L 20.21875 43.015625 
L 29.109375 43.015625 
Q 36.375 43.015625 40.234375 45.921875 
Q 44.09375 48.828125 44.09375 54.296875 
Q 44.09375 59.90625 40.109375 62.90625 
Q 36.140625 65.921875 28.71875 65.921875 
Q 24.65625 65.921875 20.015625 65.03125 
Q 15.375 64.15625 9.8125 62.3125 
L 9.8125 71.09375 
Q 15.4375 72.65625 20.34375 73.4375 
Q 25.25 74.21875 29.59375 74.21875 
Q 40.828125 74.21875 47.359375 69.109375 
Q 53.90625 64.015625 53.90625 55.328125 
Q 53.90625 49.265625 50.4375 45.09375 
Q 46.96875 40.921875 40.578125 39.3125 
z
" id="DejaVuSans-33"/>
    </defs>
    <g transform="translate(229.773416 130.291771)scale(0.1 -0.1)">
     <use xlink:href="#DejaVuSans-51"/>
     <use x="78.710938" xlink:href="#DejaVuSans-33"/>
    </g>
   </g>
  </g>
  <g id="axes_4">
   <g id="patch_11">
    <path d="M 33.996376 207.836181 
L 439.784831 207.836181 
L 439.784831 194.038437 
L 33.996376 194.038437 
z
" style="fill:#ffffff;"/>
   </g>
   <g id="matplotlib.axis_7">
    <g id="xtick_13">
     <g id="line2d_22">
      <g>
       <use style="stroke:#000000;stroke-width:0.8;" x="41.8" xlink:href="#med6eaea67c" y="194.303779"/>
      </g>
     </g>
    </g>
    <g id="xtick_14">
     <g id="line2d_23">
      <g>
       <use style="stroke:#000000;stroke-width:0.8;" x="171.860402" xlink:href="#med6eaea67c" y="194.303779"/>
      </g>
     </g>
     <g id="text_16">
      <!-- $\pi/\omega$ -->
      <g transform="translate(163.360402 208.803779)scale(0.1 -0.1)">
       <use xlink:href="#Cmmi10-bc"/>
       <use transform="translate(56.982422 0)" xlink:href="#Cmmi10-3d"/>
       <use transform="translate(106.982422 0)" xlink:href="#Cmmi10-21"/>
      </g>
     </g>
    </g>
    <g id="xtick_15">
     <g id="line2d_24">
      <g>
       <use style="stroke:#000000;stroke-width:0.8;" x="301.920805" xlink:href="#med6eaea67c" y="194.303779"/>
      </g>
     </g>
     <g id="text_17">
      <!-- $2\pi/\omega$ -->
      <g transform="translate(290.920805 208.803779)scale(0.1 -0.1)">
       <use xlink:href="#Cmr10-32"/>
       <use transform="translate(50 0)" xlink:href="#Cmmi10-bc"/>
       <use transform="translate(106.982422 0)" xlink:href="#Cmmi10-3d"/>
       <use transform="translate(156.982422 0)" xlink:href="#Cmmi10-21"/>
      </g>
     </g>
    </g>
    <g id="xtick_16">
     <g id="line2d_25">
      <g>
       <use style="stroke:#000000;stroke-width:0.8;" x="431.981207" xlink:href="#med6eaea67c" y="194.303779"/>
      </g>
     </g>
     <g id="text_18">
      <!-- $3\pi/\omega$ -->
      <g transform="translate(420.981207 208.803779)scale(0.1 -0.1)">
       <use xlink:href="#Cmr10-33"/>
       <use transform="translate(50 0)" xlink:href="#Cmmi10-bc"/>
       <use transform="translate(106.982422 0)" xlink:href="#Cmmi10-3d"/>
       <use transform="translate(156.982422 0)" xlink:href="#Cmmi10-21"/>
      </g>
     </g>
    </g>
   </g>
   <g id="matplotlib.axis_8">
    <g id="ytick_7">
     <g id="line2d_26">
      <g>
       <use style="stroke:#000000;stroke-width:0.8;" x="41.8" xlink:href="#m87d0930e01" y="207.57084"/>
      </g>
     </g>
     <g id="text_19">
      <!-- $-V_s/2$ -->
      <g transform="translate(7.2 211.32084)scale(0.1 -0.1)">
       <use xlink:href="#Cmsy10-a1"/>
       <use transform="translate(77.685547 0)" xlink:href="#Cmmi10-56"/>
       <use transform="translate(135.986328 -17.00625)scale(0.7)" xlink:href="#Cmmi10-73"/>
       <use transform="translate(175.107812 0)" xlink:href="#Cmmi10-3d"/>
       <use transform="translate(225.107812 0)" xlink:href="#Cmr10-32"/>
      </g>
     </g>
    </g>
    <g id="ytick_8">
     <g id="line2d_27">
      <g>
       <use style="stroke:#000000;stroke-width:0.8;" x="41.8" xlink:href="#m87d0930e01" y="194.303779"/>
      </g>
     </g>
    </g>
   </g>
   <g id="line2d_28">
    <path clip-path="url(#pfac4e0f249)" d="M 41.8 200.937309 
L 41.938335 194.303779 
L 171.831097 194.303779 
L 171.913628 207.57084 
L 301.887596 207.57084 
L 301.9744 194.303779 
L 431.981207 194.303779 
L 431.981207 194.303779 
" style="fill:none;stroke:#0000ff;stroke-linecap:square;"/>
   </g>
   <g id="patch_12">
    <path d="M 41.8 207.836181 
L 41.8 194.038437 
" style="fill:none;stroke:#000000;stroke-linecap:square;stroke-linejoin:miter;stroke-width:0.8;"/>
   </g>
   <g id="patch_13">
    <path d="M 33.996376 194.303779 
L 439.784831 194.303779 
" style="fill:none;stroke:#000000;stroke-linecap:square;stroke-linejoin:miter;stroke-width:0.8;"/>
   </g>
   <g id="text_20">
    <!-- Q4 -->
    <defs>
     <path d="M 37.796875 64.3125 
L 12.890625 25.390625 
L 37.796875 25.390625 
z
M 35.203125 72.90625 
L 47.609375 72.90625 
L 47.609375 25.390625 
L 58.015625 25.390625 
L 58.015625 17.1875 
L 47.609375 17.1875 
L 47.609375 0 
L 37.796875 0 
L 37.796875 17.1875 
L 4.890625 17.1875 
L 4.890625 26.703125 
z
" id="DejaVuSans-34"/>
    </defs>
    <g transform="translate(229.773416 188.038437)scale(0.1 -0.1)">
     <use xlink:href="#DejaVuSans-51"/>
     <use x="78.710938" xlink:href="#DejaVuSans-34"/>
    </g>
   </g>
  </g>
  <g id="axes_5">
   <g id="patch_14">
    <path d="M 33.996376 265.582848 
L 439.784831 265.582848 
L 439.784831 251.785104 
L 33.996376 251.785104 
z
" style="fill:#ffffff;"/>
   </g>
   <g id="matplotlib.axis_9">
    <g id="xtick_17">
     <g id="line2d_29">
      <g>
       <use style="stroke:#000000;stroke-width:0.8;" x="41.8" xlink:href="#med6eaea67c" y="265.317507"/>
      </g>
     </g>
    </g>
    <g id="xtick_18">
     <g id="line2d_30">
      <g>
       <use style="stroke:#000000;stroke-width:0.8;" x="171.860402" xlink:href="#med6eaea67c" y="265.317507"/>
      </g>
     </g>
     <g id="text_21">
      <!-- $\pi/\omega$ -->
      <g transform="translate(163.360402 279.817507)scale(0.1 -0.1)">
       <use xlink:href="#Cmmi10-bc"/>
       <use transform="translate(56.982422 0)" xlink:href="#Cmmi10-3d"/>
       <use transform="translate(106.982422 0)" xlink:href="#Cmmi10-21"/>
      </g>
     </g>
    </g>
    <g id="xtick_19">
     <g id="line2d_31">
      <g>
       <use style="stroke:#000000;stroke-width:0.8;" x="301.920805" xlink:href="#med6eaea67c" y="265.317507"/>
      </g>
     </g>
     <g id="text_22">
      <!-- $2\pi/\omega$ -->
      <g transform="translate(290.920805 279.817507)scale(0.1 -0.1)">
       <use xlink:href="#Cmr10-32"/>
       <use transform="translate(50 0)" xlink:href="#Cmmi10-bc"/>
       <use transform="translate(106.982422 0)" xlink:href="#Cmmi10-3d"/>
       <use transform="translate(156.982422 0)" xlink:href="#Cmmi10-21"/>
      </g>
     </g>
    </g>
    <g id="xtick_20">
     <g id="line2d_32">
      <g>
       <use style="stroke:#000000;stroke-width:0.8;" x="431.981207" xlink:href="#med6eaea67c" y="265.317507"/>
      </g>
     </g>
     <g id="text_23">
      <!-- $3\pi/\omega$ -->
      <g transform="translate(420.981207 279.817507)scale(0.1 -0.1)">
       <use xlink:href="#Cmr10-33"/>
       <use transform="translate(50 0)" xlink:href="#Cmmi10-bc"/>
       <use transform="translate(106.982422 0)" xlink:href="#Cmmi10-3d"/>
       <use transform="translate(156.982422 0)" xlink:href="#Cmmi10-21"/>
      </g>
     </g>
    </g>
   </g>
   <g id="matplotlib.axis_10">
    <g id="ytick_9">
     <g id="line2d_33">
      <g>
       <use style="stroke:#000000;stroke-width:0.8;" x="41.8" xlink:href="#m87d0930e01" y="265.317507"/>
      </g>
     </g>
    </g>
    <g id="ytick_10">
     <g id="line2d_34">
      <g>
       <use style="stroke:#000000;stroke-width:0.8;" x="41.8" xlink:href="#m87d0930e01" y="252.050445"/>
      </g>
     </g>
     <g id="text_24">
      <!-- $V_s/2$ -->
      <g transform="translate(15 255.800445)scale(0.1 -0.1)">
       <use xlink:href="#Cmmi10-56"/>
       <use transform="translate(58.300781 -17.00625)scale(0.7)" xlink:href="#Cmmi10-73"/>
       <use transform="translate(97.422266 0)" xlink:href="#Cmmi10-3d"/>
       <use transform="translate(147.422266 0)" xlink:href="#Cmr10-32"/>
      </g>
     </g>
    </g>
   </g>
   <g id="line2d_35">
    <path clip-path="url(#pb2775f55b2)" d="M 41.8 252.050445 
L 85.083907 252.050445 
L 85.228151 265.317507 
L 215.188069 265.317507 
L 215.252166 252.050445 
L 345.223231 252.050445 
L 345.391183 265.317507 
L 431.981207 265.317507 
L 431.981207 265.317507 
" style="fill:none;stroke:#0000ff;stroke-linecap:square;"/>
   </g>
   <g id="patch_15">
    <path d="M 41.8 265.582848 
L 41.8 251.785104 
" style="fill:none;stroke:#000000;stroke-linecap:square;stroke-linejoin:miter;stroke-width:0.8;"/>
   </g>
   <g id="patch_16">
    <path d="M 33.996376 265.317507 
L 439.784831 265.317507 
" style="fill:none;stroke:#000000;stroke-linecap:square;stroke-linejoin:miter;stroke-width:0.8;"/>
   </g>
   <g id="text_25">
    <!-- Q5 -->
    <defs>
     <path d="M 10.796875 72.90625 
L 49.515625 72.90625 
L 49.515625 64.59375 
L 19.828125 64.59375 
L 19.828125 46.734375 
Q 21.96875 47.46875 24.109375 47.828125 
Q 26.265625 48.1875 28.421875 48.1875 
Q 40.625 48.1875 47.75 41.5 
Q 54.890625 34.8125 54.890625 23.390625 
Q 54.890625 11.625 47.5625 5.09375 
Q 40.234375 -1.421875 26.90625 -1.421875 
Q 22.3125 -1.421875 17.546875 -0.640625 
Q 12.796875 0.140625 7.71875 1.703125 
L 7.71875 11.625 
Q 12.109375 9.234375 16.796875 8.0625 
Q 21.484375 6.890625 26.703125 6.890625 
Q 35.15625 6.890625 40.078125 11.328125 
Q 45.015625 15.765625 45.015625 23.390625 
Q 45.015625 31 40.078125 35.4375 
Q 35.15625 39.890625 26.703125 39.890625 
Q 22.75 39.890625 18.8125 39.015625 
Q 14.890625 38.140625 10.796875 36.28125 
z
" id="DejaVuSans-35"/>
    </defs>
    <g transform="translate(229.773416 245.785104)scale(0.1 -0.1)">
     <use xlink:href="#DejaVuSans-51"/>
     <use x="78.710938" xlink:href="#DejaVuSans-35"/>
    </g>
   </g>
  </g>
  <g id="axes_6">
   <g id="patch_17">
    <path d="M 33.996376 323.329514 
L 439.784831 323.329514 
L 439.784831 309.531771 
L 33.996376 309.531771 
z
" style="fill:#ffffff;"/>
   </g>
   <g id="matplotlib.axis_11">
    <g id="xtick_21">
     <g id="line2d_36">
      <g>
       <use style="stroke:#000000;stroke-width:0.8;" x="41.8" xlink:href="#med6eaea67c" y="309.797112"/>
      </g>
     </g>
    </g>
    <g id="xtick_22">
     <g id="line2d_37">
      <g>
       <use style="stroke:#000000;stroke-width:0.8;" x="171.860402" xlink:href="#med6eaea67c" y="309.797112"/>
      </g>
     </g>
     <g id="text_26">
      <!-- $\pi/\omega$ -->
      <g transform="translate(163.360402 324.297112)scale(0.1 -0.1)">
       <use xlink:href="#Cmmi10-bc"/>
       <use transform="translate(56.982422 0)" xlink:href="#Cmmi10-3d"/>
       <use transform="translate(106.982422 0)" xlink:href="#Cmmi10-21"/>
      </g>
     </g>
    </g>
    <g id="xtick_23">
     <g id="line2d_38">
      <g>
       <use style="stroke:#000000;stroke-width:0.8;" x="301.920805" xlink:href="#med6eaea67c" y="309.797112"/>
      </g>
     </g>
     <g id="text_27">
      <!-- $2\pi/\omega$ -->
      <g transform="translate(290.920805 324.297112)scale(0.1 -0.1)">
       <use xlink:href="#Cmr10-32"/>
       <use transform="translate(50 0)" xlink:href="#Cmmi10-bc"/>
       <use transform="translate(106.982422 0)" xlink:href="#Cmmi10-3d"/>
       <use transform="translate(156.982422 0)" xlink:href="#Cmmi10-21"/>
      </g>
     </g>
    </g>
    <g id="xtick_24">
     <g id="line2d_39">
      <g>
       <use style="stroke:#000000;stroke-width:0.8;" x="431.981207" xlink:href="#med6eaea67c" y="309.797112"/>
      </g>
     </g>
     <g id="text_28">
      <!-- $3\pi/\omega$ -->
      <g transform="translate(420.981207 324.297112)scale(0.1 -0.1)">
       <use xlink:href="#Cmr10-33"/>
       <use transform="translate(50 0)" xlink:href="#Cmmi10-bc"/>
       <use transform="translate(106.982422 0)" xlink:href="#Cmmi10-3d"/>
       <use transform="translate(156.982422 0)" xlink:href="#Cmmi10-21"/>
      </g>
     </g>
    </g>
   </g>
   <g id="matplotlib.axis_12">
    <g id="ytick_11">
     <g id="line2d_40">
      <g>
       <use style="stroke:#000000;stroke-width:0.8;" x="41.8" xlink:href="#m87d0930e01" y="323.064173"/>
      </g>
     </g>
     <g id="text_29">
      <!-- $-V_s/2$ -->
      <g transform="translate(7.2 326.814173)scale(0.1 -0.1)">
       <use xlink:href="#Cmsy10-a1"/>
       <use transform="translate(77.685547 0)" xlink:href="#Cmmi10-56"/>
       <use transform="translate(135.986328 -17.00625)scale(0.7)" xlink:href="#Cmmi10-73"/>
       <use transform="translate(175.107812 0)" xlink:href="#Cmmi10-3d"/>
       <use transform="translate(225.107812 0)" xlink:href="#Cmr10-32"/>
      </g>
     </g>
    </g>
    <g id="ytick_12">
     <g id="line2d_41">
      <g>
       <use style="stroke:#000000;stroke-width:0.8;" x="41.8" xlink:href="#m87d0930e01" y="309.797112"/>
      </g>
     </g>
    </g>
   </g>
   <g id="line2d_42">
    <path clip-path="url(#p1b135007f8)" d="M 41.8 323.064173 
L 128.481127 323.064173 
L 128.528093 309.797112 
L 258.518771 309.797112 
L 258.622249 323.064173 
L 388.58608 323.064173 
L 388.751903 309.797112 
L 431.981207 309.797112 
L 431.981207 309.797112 
" style="fill:none;stroke:#0000ff;stroke-linecap:square;"/>
   </g>
   <g id="patch_18">
    <path d="M 41.8 323.329514 
L 41.8 309.531771 
" style="fill:none;stroke:#000000;stroke-linecap:square;stroke-linejoin:miter;stroke-width:0.8;"/>
   </g>
   <g id="patch_19">
    <path d="M 33.996376 309.797112 
L 439.784831 309.797112 
" style="fill:none;stroke:#000000;stroke-linecap:square;stroke-linejoin:miter;stroke-width:0.8;"/>
   </g>
   <g id="text_30">
    <!-- Q6 -->
    <defs>
     <path d="M 33.015625 40.375 
Q 26.375 40.375 22.484375 35.828125 
Q 18.609375 31.296875 18.609375 23.390625 
Q 18.609375 15.53125 22.484375 10.953125 
Q 26.375 6.390625 33.015625 6.390625 
Q 39.65625 6.390625 43.53125 10.953125 
Q 47.40625 15.53125 47.40625 23.390625 
Q 47.40625 31.296875 43.53125 35.828125 
Q 39.65625 40.375 33.015625 40.375 
z
M 52.59375 71.296875 
L 52.59375 62.3125 
Q 48.875 64.0625 45.09375 64.984375 
Q 41.3125 65.921875 37.59375 65.921875 
Q 27.828125 65.921875 22.671875 59.328125 
Q 17.53125 52.734375 16.796875 39.40625 
Q 19.671875 43.65625 24.015625 45.921875 
Q 28.375 48.1875 33.59375 48.1875 
Q 44.578125 48.1875 50.953125 41.515625 
Q 57.328125 34.859375 57.328125 23.390625 
Q 57.328125 12.15625 50.6875 5.359375 
Q 44.046875 -1.421875 33.015625 -1.421875 
Q 20.359375 -1.421875 13.671875 8.265625 
Q 6.984375 17.96875 6.984375 36.375 
Q 6.984375 53.65625 15.1875 63.9375 
Q 23.390625 74.21875 37.203125 74.21875 
Q 40.921875 74.21875 44.703125 73.484375 
Q 48.484375 72.75 52.59375 71.296875 
z
" id="DejaVuSans-36"/>
    </defs>
    <g transform="translate(229.773416 303.531771)scale(0.1 -0.1)">
     <use xlink:href="#DejaVuSans-51"/>
     <use x="78.710938" xlink:href="#DejaVuSans-36"/>
    </g>
   </g>
  </g>
 </g>
 <defs>
  <clipPath id="p37209b7a1b">
   <rect height="13.797744" width="405.788456" x="33.996376" y="20.798437"/>
  </clipPath>
  <clipPath id="pb827f75d0a">
   <rect height="13.797744" width="405.788456" x="33.996376" y="78.545104"/>
  </clipPath>
  <clipPath id="pb72c3f26ae">
   <rect height="13.797744" width="405.788456" x="33.996376" y="136.291771"/>
  </clipPath>
  <clipPath id="pfac4e0f249">
   <rect height="13.797744" width="405.788456" x="33.996376" y="194.038437"/>
  </clipPath>
  <clipPath id="pb2775f55b2">
   <rect height="13.797744" width="405.788456" x="33.996376" y="251.785104"/>
  </clipPath>
  <clipPath id="p1b135007f8">
   <rect height="13.797744" width="405.788456" x="33.996376" y="309.531771"/>
  </clipPath>
 </defs>
</svg>
